<?xml version="1.0" standalone="no"?>
<!DOCTYPE svg PUBLIC "-//W3C//DTD SVG 20010904//EN"
 "http://www.w3.org/TR/2001/REC-SVG-20010904/DTD/svg10.dtd">
<svg version="1.0" xmlns="http://www.w3.org/2000/svg"
 width="345.000000pt" height="345.000000pt" viewBox="0 0 345.000000 345.000000"
 preserveAspectRatio="xMidYMid meet">
<metadata>
Created by potrace 1.14, written by Peter Selinger 2001-2017
</metadata>
<g transform="translate(0.000000,345.000000) scale(0.100000,-0.100000)"
fill="#000000" stroke="none">
<path d="M1618 3445 c-2 -1 -36 -5 -76 -9 -183 -15 -362 -66 -547 -156 -246
-119 -472 -298 -612 -485 -13 -17 -38 -51 -57 -76 -55 -73 -141 -234 -185
-344 -121 -303 -153 -601 -100 -930 55 -346 253 -722 511 -973 102 -98 121
-114 226 -186 185 -126 457 -231 677 -262 28 -3 59 -9 70 -11 42 -9 294 -10
375 -1 194 21 413 84 585 170 774 387 1143 1316 849 2140 -33 93 -114 255
-165 331 -21 33 -39 63 -39 67 0 5 -3 10 -7 12 -5 2 -27 28 -50 58 -23 30 -77
91 -120 136 -266 275 -606 448 -988 504 -69 11 -339 22 -347 15z"/>
</g>
</svg>
